<svg width="120" height="40" viewBox="0 0 120 40" fill="none" xmlns="http://www.w3.org/2000/svg">
  <path d="M20.5 8C13.6 8 8 13.6 8 20.5C8 27.4 13.6 33 20.5 33C27.4 33 33 27.4 33 20.5C33 13.6 27.4 8 20.5 8ZM20.5 30C15.3 30 11 25.7 11 20.5C11 15.3 15.3 11 20.5 11C25.7 11 30 15.3 30 20.5C30 25.7 25.7 30 20.5 30Z" fill="#0053A5"/>
  <path d="M20.5 14C17 14 14 17 14 20.5C14 24 17 27 20.5 27C24 27 27 24 27 20.5C27 17 24 14 20.5 14ZM20.5 24C18.6 24 17 22.4 17 20.5C17 18.6 18.6 17 20.5 17C22.4 17 24 18.6 24 20.5C24 22.4 22.4 24 20.5 24Z" fill="#00A5B5"/>
  <path d="M45 16.5H48.5C50.4 16.5 52 18.1 52 20C52 21.9 50.4 23.5 48.5 23.5H45V16.5ZM48.5 26.5C52.1 26.5 55 23.6 55 20C55 16.4 52.1 13.5 48.5 13.5H42V26.5H48.5Z" fill="#0053A5"/>
  <path d="M60 13.5H57V26.5H60V13.5Z" fill="#0053A5"/>
  <path d="M70 13.5H67V26.5H70V13.5Z" fill="#0053A5"/>
  <path d="M80 13.5H77V26.5H80V13.5Z" fill="#0053A5"/>
  <path d="M90 13.5H87V26.5H90V13.5Z" fill="#0053A5"/>
  <path d="M100 13.5H97V26.5H100V13.5Z" fill="#0053A5"/>
  <path d="M110 13.5H107V26.5H110V13.5Z" fill="#0053A5"/>
</svg>