<svg width="200" height="60" viewBox="0 0 200 60" fill="none" xmlns="http://www.w3.org/2000/svg">
  <path d="M30 10C18.954 10 10 18.954 10 30C10 41.046 18.954 50 30 50C41.046 50 50 41.046 50 30C50 18.954 41.046 10 30 10ZM30 45C21.716 45 15 38.284 15 30C15 21.716 21.716 15 30 15C38.284 15 45 21.716 45 30C45 38.284 38.284 45 30 45Z" fill="#0053A5"/>
  <path d="M30 20C24.477 20 20 24.477 20 30C20 35.523 24.477 40 30 40C35.523 40 40 35.523 40 30C40 24.477 35.523 20 30 20ZM30 35C27.239 35 25 32.761 25 30C25 27.239 27.239 25 30 25C32.761 25 35 27.239 35 30C35 32.761 32.761 35 30 35Z" fill="#00A5B5"/>
  <path d="M65 25H70C73.314 25 76 27.686 76 31C76 34.314 73.314 37 70 37H65V25ZM70 42C76.075 42 81 37.075 81 31C81 24.925 76.075 20 70 20H60V42H70Z" fill="#0053A5"/>
  <path d="M85 20H90V42H85V20Z" fill="#0053A5"/>
  <path d="M95 20H100V42H95V20Z" fill="#0053A5"/>
  <path d="M105 20H110V42H105V20Z" fill="#0053A5"/>
  <path d="M115 20H120V42H115V20Z" fill="#0053A5"/>
  <path d="M125 20H130V42H125V20Z" fill="#0053A5"/>
  <path d="M135 20H140V42H135V20Z" fill="#0053A5"/>
  <path d="M150 20H190V25H150V20Z" fill="#0053A5"/>
  <path d="M150 29H190V34H150V29Z" fill="#0053A5"/>
  <path d="M150 38H190V43H150V38Z" fill="#0053A5"/>
</svg>